<?xml version="1.0" encoding="utf-8"?>
<!-- Generator: Adobe Illustrator 16.0.0, SVG Export Plug-In . SVG Version: 6.00 Build 0)  -->
<!DOCTYPE svg PUBLIC "-//W3C//DTD SVG 1.1//EN" "http://www.w3.org/Graphics/SVG/1.1/DTD/svg11.dtd">
<svg version="1.1" id="Layer_1" xmlns="http://www.w3.org/2000/svg" xmlns:xlink="http://www.w3.org/1999/xlink" x="0px" y="0px"
	 width="159px" height="27px" viewBox="0 0 159 27" enable-background="new 0 0 159 27" xml:space="preserve">
<g>
	<path d="M53.835,4.847l2.501-2.875L53.923,0l-2.539,2.922c-1.895-1.121-4.106-1.711-6.411-1.711c-3.548,0-6.786,1.386-9.117,3.901
		c-2.222,2.397-3.444,5.578-3.444,8.958v0.066c0,3.381,1.211,6.55,3.411,8.925c2.31,2.495,5.536,3.869,9.084,3.869
		s6.786-1.386,9.118-3.902c2.222-2.396,3.444-5.578,3.444-8.958v-0.065c0-3.381-1.212-6.55-3.411-8.925
		C53.981,4.998,53.906,4.919,53.835,4.847z M44.906,23.593c-2.607,0-4.964-0.994-6.637-2.8c-1.626-1.757-2.521-4.121-2.521-6.657
		v-0.066c0-2.536,0.907-4.912,2.555-6.689c1.693-1.827,4.062-2.833,6.67-2.833c1.519,0,2.986,0.346,4.265,1.001l-2.557,2.943
		l2.413,1.972l2.612-3.011c1.565,1.745,2.426,4.065,2.426,6.551v0.065c0,2.536-0.907,4.912-2.555,6.69
		C49.884,22.586,47.515,23.593,44.906,23.593z"/>
	<polygon points="62.882,4.988 70.944,4.988 70.944,26.532 74.458,26.532 74.458,4.988 82.521,4.988 82.521,1.607 62.882,1.607 	"/>
	<rect x="91.007" y="1.607" width="3.513" height="24.925"/>
	<path d="M146.025,1.963l-0.239-0.521h-2.801l-11.603,25.091h26.005L146.025,1.963z M136.603,23.196l7.782-16.832l7.784,16.832
		H136.603z"/>
	<path d="M109.524,7.451c1.693-1.827,4.062-2.833,6.67-2.833c2.646,0,4.941,0.968,6.637,2.8c0.898,0.969,1.572,2.117,2.004,3.409
		l0.203,0.615h3.449l-0.329-1.146c-1.58-5.477-6.275-9.015-11.964-9.015c-3.548,0-6.786,1.386-9.117,3.901
		c-2.221,2.397-3.444,5.578-3.444,8.958v0.065c0,3.381,1.211,6.551,3.411,8.925c2.312,2.494,5.538,3.868,9.084,3.868
		c5.67,0,10.381-3.535,12.003-9.007l0.343-1.153h-3.457l-0.208,0.607c-0.437,1.278-1.113,2.416-2.01,3.384
		c-1.693,1.826-4.062,2.833-6.671,2.833c-2.645,0-4.939-0.969-6.637-2.8c-1.626-1.756-2.521-4.12-2.521-6.657v-0.065
		C106.97,11.605,107.876,9.229,109.524,7.451z"/>
	<path d="M22.789,17.447c-0.438,1.277-1.113,2.416-2.011,3.384c-1.693,1.826-4.062,2.833-6.67,2.833c-2.646,0-4.94-0.969-6.637-2.8
		c-1.626-1.756-2.522-4.12-2.522-6.657v-0.065c0-0.232,0.008-0.467,0.024-0.702h21.31v-2.667l-0.19-0.629
		c-1.622-5.384-6.301-8.862-11.918-8.862c-3.548,0-6.786,1.386-9.118,3.901c-2.221,2.396-3.444,5.578-3.444,8.958v0.065
		c0,3.381,1.212,6.551,3.411,8.925C7.335,25.626,10.562,27,14.108,27c5.669,0,10.381-3.535,12.003-9.007l0.342-1.153h-3.456
		L22.789,17.447z M14.175,4.619c2.646,0,4.94,0.968,6.637,2.8c0.725,0.782,1.306,1.685,1.729,2.685H5.777
		c0.426-0.982,1.006-1.874,1.727-2.652C9.198,5.625,11.566,4.619,14.175,4.619z"/>
</g>
</svg>
